PathFileType	4	(X/Y/Z)	./resultDataOpenSim/trcMotMarkerGrf/sub06/qtm-14-06.trc
DataRate	CameraRate	NumFrames	NumMarkers	Units	OrigDataRate	OrigDataStartFrame	OrigNumFrames
250.000000	250.000000	8	24	m	250.000000	199	529
Frame#	Time	L.Toe.Tip			R.Toe.Tip			L.Ankle.Lat			R.Ankle.Lat			L.Ankle.Med			R.Ankle.Med			L.Heel			R.Heel			L.Knee.Lat			R.Knee.Lat			L.Knee.Med			R.Knee.Med			L.Thigh.Upper			R.Thigh.Upper			L.ASIS			R.ASIS			V.Sacral			L.Acromium			R.Acromium			C7			L.Elbow			R.Elbow			L.Wrist.Lat			R.Wrist.Lat
		X1	Y1	Z1	X2	Y2	Z2	X3	Y3	Z3	X4	Y4	Z4	X5	Y5	Z5	X6	Y6	Z6	X7	Y7	Z7	X8	Y8	Z8	X9	Y9	Z9	X10	Y10	Z10	X11	Y11	Z11	X12	Y12	Z12	X13	Y13	Z13	X14	Y14	Z14	X15	Y15	Z15	X16	Y16	Z16	X17	Y17	Z17	X18	Y18	Z18	X19	Y19	Z19	X20	Y20	Z20	X21	Y21	Z21	X22	Y22	Z22	X23	Y23	Z23	X24	Y24	Z24

199	0.792	0.055965662	-0.039254874	-0.051711875	-0.45822441	0.095563829	0.10617485	-0.065270959	-0.0076593904	-0.087898854	-0.48183719	0.23190084	0.11591196	-0.074135926	0.0079393871	-0.0013317924	-0.43901484	0.21333904	0.038158083	-0.14442082	-0.033657788	-0.051137167	-0.51010766	0.26740465	0.046174448	0.0079047557	0.36358535	-0.10675993	-0.13620491	0.3496641	0.18953181	-0.012832753	0.36355261	0.0098677068	-0.13172659	0.33304155	0.060216199	-0.10351947	0.73864678	-0.18262238	-0.18728404	0.70757169	0.15414342	-0.043579792	0.77757298	-0.12295035	-0.083905193	0.76469233	0.11532318	-0.24756872	0.85173063	-0.019180128	-0.11554297	1.2456607	-0.213577	-0.13735373	1.256414	0.14952942	-0.20516981	1.2856541	-0.040664975	-0.21984231	0.9536553	-0.26877501	-0.20876617	0.94928416	0.2530235	-0.14385089	0.72664448	-0.31244411	-0.0010629213	0.81223008	0.26010437
200	0.796	0.05598563	-0.03927802	-0.051620803	-0.4393367	0.096878789	0.10684204	-0.065152122	-0.0077260249	-0.087882019	-0.46590032	0.23209496	0.11671129	-0.074097369	0.0077976556	-0.0011248073	-0.42287034	0.21461653	0.038607972	-0.14439634	-0.033494317	-0.050943733	-0.49524842	0.26757462	0.047634092	0.010128922	0.36156722	-0.1069295	-0.12089657	0.35130501	0.18932018	-0.010186032	0.36212443	0.010170145	-0.11680693	0.33420247	0.059736784	-0.096932672	0.73872241	-0.18312644	-0.18044149	0.70885557	0.15375957	-0.037497153	0.77870571	-0.12393371	-0.077969099	0.76683419	0.11492309	-0.2418991	0.85267865	-0.021363806	-0.10812186	1.2468626	-0.21298736	-0.12975165	1.2576215	0.14968679	-0.19824687	1.2864997	-0.040202292	-0.2100147	0.95418448	-0.26901204	-0.20404144	0.95114922	0.25111773	-0.13138857	0.72792058	-0.31280581	0.0010463355	0.81012065	0.26135366
201	0.8	0.055989605	-0.039305253	-0.051482041	-0.42013801	0.098180866	0.10766814	-0.065004609	-0.0077763613	-0.087802741	-0.44974596	0.23220666	0.1176329	-0.074122113	0.007693479	-0.00093829415	-0.40667371	0.21580315	0.039128875	-0.14439827	-0.033367343	-0.050757113	-0.48042424	0.26745639	0.049011631	0.012555549	0.35966709	-0.10658534	-0.10555292	0.35327335	0.18901328	-0.0082798843	0.36091816	0.010660155	-0.10216613	0.33575043	0.058893409	-0.09020615	0.7386545	-0.18349639	-0.17383574	0.71024829	0.15358565	-0.031475816	0.77988233	-0.12458309	-0.072153951	0.76907352	0.11458674	-0.23637089	0.85359696	-0.024009815	-0.1007391	1.2481484	-0.21237829	-0.12234863	1.2589111	0.14986885	-0.19140805	1.2874173	-0.039787584	-0.20026324	0.95473528	-0.26925786	-0.19933498	0.95319105	0.24926163	-0.11892645	0.72931238	-0.31318611	0.0029755023	0.80812405	0.26258127
202	0.804	0.055993557	-0.039334684	-0.051319881	-0.40069911	0.099424652	0.10858977	-0.064789446	-0.0078057667	-0.087659509	-0.43314396	0.23237884	0.11877885	-0.074187366	0.007683364	-0.00080448174	-0.39048148	0.21685899	0.039757557	-0.14439502	-0.033200687	-0.050751183	-0.46561672	0.26705842	0.05028046	0.015235795	0.35802508	-0.10582867	-0.090201063	0.35558496	0.18860902	-0.0071815859	0.35997582	0.011197781	-0.087958375	0.33785748	0.057806903	-0.083327205	0.73852754	-0.18382776	-0.16766804	0.71182169	0.15378147	-0.025506691	0.78109755	-0.12497264	-0.066452811	0.77137169	0.1142955	-0.23042928	0.85449968	-0.025840504	-0.093357414	1.2495085	-0.21176853	-0.1151331	1.260261	0.15006479	-0.18460775	1.2884056	-0.039434113	-0.19060505	0.95532093	-0.26951481	-0.19467134	0.95538926	0.24747288	-0.10641521	0.73083273	-0.3135655	0.0047418394	0.80624935	0.26379361
203	0.808	0.056006745	-0.039363064	-0.051162801	-0.38111327	0.10056618	0.10955052	-0.064485389	-0.0077891	-0.087451569	-0.41603789	0.23264813	0.12015503	-0.074262819	0.0077705095	-0.000724959	-0.37430549	0.21774146	0.040436944	-0.14437355	-0.03296899	-0.050916636	-0.45079657	0.26635947	0.051481588	0.01805228	0.35678248	-0.10489004	-0.074867406	0.35823076	0.188099	-0.0067977579	0.35930979	0.011710234	-0.073932975	0.34049692	0.056703027	-0.076375164	0.73847179	-0.18421492	-0.16194887	0.71357428	0.1543332	-0.019591563	0.78233067	-0.12516348	-0.060798817	0.77369601	0.11405527	-0.22379889	0.85540702	-0.026281963	-0.085970161	1.2509318	-0.21116725	-0.10808186	1.261653	0.15026119	-0.17780015	1.2894715	-0.039146728	-0.18104503	0.955947	-0.26979557	-0.19003113	0.95771062	0.24576465	-0.093782533	0.73250463	-0.31392518	0.0063660188	0.8044918	0.26500459
204	0.812	0.056031088	-0.039388364	-0.051030847	-0.36143472	0.10159791	0.11054806	-0.064146299	-0.0077084968	-0.087223392	-0.39868153	0.23288372	0.12162188	-0.074300489	0.0079232072	-0.00068527475	-0.35811093	0.21841989	0.041120579	-0.1443356	-0.032699228	-0.051082454	-0.4359281	0.2653351	0.052662714	0.020796128	0.35602525	-0.10400137	-0.05958554	0.36119488	0.18748115	-0.0068287839	0.35894787	0.012228572	-0.059856131	0.343558	0.055725909	-0.069502121	0.73860965	-0.184711	-0.15618371	0.71539576	0.15476939	-0.01374822	0.78355134	-0.12518751	-0.055137838	0.77601649	0.11387283	-0.21674908	0.85636322	-0.025917724	-0.078571595	1.2524076	-0.21057633	-0.10116641	1.263076	0.15045021	-0.17094354	1.290639	-0.038912722	-0.17157683	0.95660447	-0.27010251	-0.18535736	0.96010502	0.24413911	-0.081044212	0.73432937	-0.31427538	0.0078798825	0.80283899	0.26622318
205	0.816	0.056062847	-0.03941081	-0.050928414	-0.34169153	0.10252541	0.11160836	-0.063880279	-0.0075715597	-0.08706014	-0.3815003	0.23285612	0.12297875	-0.074219823	0.0081367667	-0.00069460939	-0.34183404	0.21888646	0.041831562	-0.14429375	-0.032434051	-0.051080375	-0.4209568	0.26399426	0.053842992	0.023280945	0.35574185	-0.10328609	-0.044389195	0.36446435	0.18676458	-0.0069892228	0.35889769	0.012813819	-0.0457866	0.34698515	0.054899396	-0.062811916	0.73901308	-0.18529329	-0.14974078	0.71717939	0.15448733	-0.0079616713	0.78477104	-0.12513381	-0.04945919	0.77830848	0.11374336	-0.20982654	0.85742415	-0.025723661	-0.071127865	1.2539273	-0.20999793	-0.094359084	1.2645177	0.15063425	-0.16400331	1.2919263	-0.03870825	-0.1621936	0.95727772	-0.27041932	-0.18060955	0.96251187	0.24259637	-0.068302598	0.73627999	-0.31464932	0.0093227252	0.80127474	0.26745863
206	0.82	0.056094647	-0.039429891	-0.050848873	-0.32189106	0.10335107	0.11276659	-0.063748249	-0.0073974593	-0.087010614	-0.36481395	0.2323758	0.12409321	-0.074005636	0.0084213632	-0.00075488411	-0.32545981	0.219153	0.042629197	-0.14426936	-0.032183129	-0.050916487	-0.40583825	0.26236955	0.055028103	0.025401476	0.35584562	-0.10276958	-0.029302476	0.36802209	0.18596239	-0.0072239193	0.35908344	0.01344953	-0.031833928	0.35078709	0.054179437	-0.056296058	0.73968271	-0.18587127	-0.14267272	0.71897706	0.15350958	-0.0021796242	0.78604064	-0.12514244	-0.043765569	0.78055844	0.11366228	-0.20337428	0.85862142	-0.026147385	-0.06360852	1.2554847	-0.2094387	-0.087631074	1.2659643	0.15082221	-0.15696126	1.2933317	-0.038509015	-0.15289645	0.95795604	-0.2707191	-0.17578952	0.96487806	0.24114451	-0.055618356	0.7383352	-0.31506489	0.01071639	0.79978921	0.26872259
